<?xml version="1.0" encoding="UTF-8" standalone="no"?>
<svg
   xmlns:dc="http://purl.org/dc/elements/1.1/"
   xmlns:cc="http://creativecommons.org/ns#"
   xmlns:rdf="http://www.w3.org/1999/02/22-rdf-syntax-ns#"
   xmlns:svg="http://www.w3.org/2000/svg"
   xmlns="http://www.w3.org/2000/svg"
   xmlns:sodipodi="http://sodipodi.sourceforge.net/DTD/sodipodi-0.dtd"
   xmlns:inkscape="http://www.inkscape.org/namespaces/inkscape"
   width="288.03848mm"
   height="172.0403mm"
   viewBox="0 0 288.03849 172.0403"
   version="1.1"
   id="svg8"
   inkscape:version="1.0.1 (1.0.1+r74)"
   sodipodi:docname="logo-svg-path.svg"
   inkscape:export-filename="/home/pablomuro/Documentos/logo-svg-path-cinza.png"
   inkscape:export-xdpi="300"
   inkscape:export-ydpi="300">
  <defs
     id="defs2">
    <inkscape:path-effect
       effect="fillet_chamfer"
       id="path-effect36"
       is_visible="true"
       lpeversion="1"
       satellites_param="F,0,0,1,0,0.26458333,0,2 @ F,0,0,1,0,0.26458333,0,2 @ F,0,0,1,0,0.26458333,0,2 @ F,0,0,1,0,0.26458333,0,2"
       unit="px"
       method="bezier"
       mode="F"
       radius="1"
       chamfer_steps="2"
       flexible="false"
       use_knot_distance="false"
       apply_no_radius="true"
       apply_with_radius="true"
       only_selected="false"
       hide_knots="false" />
    <inkscape:path-effect
       effect="fillet_chamfer"
       id="path-effect34"
       is_visible="true"
       lpeversion="1"
       satellites_param="F,0,0,1,0,0.26458333,0,1 @ F,0,0,1,0,0.26458333,0,1 @ F,0,0,1,0,0.26458333,0,1 @ F,0,0,1,0,0.26458333,0,1"
       unit="px"
       method="bezier"
       mode="F"
       radius="1"
       chamfer_steps="2"
       flexible="false"
       use_knot_distance="false"
       apply_no_radius="true"
       apply_with_radius="true"
       only_selected="false"
       hide_knots="false" />
    <rect
       x="3.7054904"
       y="4.3090606"
       width="182.17802"
       height="168.38699"
       id="rect38" />
  </defs>
  <sodipodi:namedview
     id="base"
     pagecolor="#ffffff"
     bordercolor="#666666"
     borderopacity="1.0"
     inkscape:pageopacity="0"
     inkscape:pageshadow="2"
     inkscape:zoom="0.73484808"
     inkscape:cx="389.49008"
     inkscape:cy="396.17411"
     inkscape:document-units="mm"
     inkscape:current-layer="g32"
     inkscape:document-rotation="0"
     showgrid="true"
     units="mm"
     inkscape:window-width="1920"
     inkscape:window-height="1016"
     inkscape:window-x="0"
     inkscape:window-y="0"
     inkscape:window-maximized="1"
     fit-margin-top="0"
     fit-margin-left="0"
     fit-margin-right="0"
     fit-margin-bottom="0">
    <inkscape:grid
       type="xygrid"
       id="grid49"
       originx="-12.612072"
       originy="-4.9999994" />
  </sodipodi:namedview>
  <metadata
     id="metadata5">
    <rdf:RDF>
      <cc:Work
         rdf:about="">
        <dc:format>image/svg+xml</dc:format>
        <dc:type
           rdf:resource="http://purl.org/dc/dcmitype/StillImage" />
        <dc:title />
      </cc:Work>
    </rdf:RDF>
  </metadata>
  <g
     inkscape:label="Layer 1"
     inkscape:groupmode="layer"
     id="layer1"
     transform="translate(-12.612072,-4.9999995)">
    <g
       aria-label="p&gt;blo__ __muro"
       transform="matrix(7.7826018,0,0,8.4418694,-10.442783,-27.575297)"
       id="text36"
       style="font-style:normal;font-weight:normal;font-size:10.7119px;line-height:1;font-family:sans-serif;white-space:pre;shape-inside:url(#rect38);fill:#000000;fill-opacity:1;stroke:none">
      <g
         id="g32">
        <path
           d="m 5.0179135,12.180376 q -0.010461,0.07846 -0.2301385,0.826406 -0.2144472,0.74795 -0.3608989,1.187305 -0.3295165,0.983319 -0.5439637,1.223918 -0.1726039,0.188296 -0.4184336,0.188296 -0.2981339,0 -0.4550465,-0.292904 -0.047074,-0.08369 -0.047074,-0.188295 0,-0.09938 0.1569126,-0.439355 0.4132032,-0.86302 1.1036186,-3.399773 0.2772122,-1.004241 0.3661294,-1.3651398 L 4.7563925,9.2670317 Q 4.9185355,8.6184597 4.9446876,8.3883212 4.9760701,8.1529523 4.9185355,8.0588047 4.8610009,7.9594268 4.787775,7.912353 4.7145491,7.8600488 4.6517841,7.8234359 4.5890191,7.7868229 4.5994799,7.6926754 4.6099408,7.5932974 4.6831666,7.5148411 4.7616229,7.4311544 4.8766922,7.3736198 5.1120611,7.2637809 5.3474299,7.2637809 q 0.2405994,0 0.3765903,0.057535 0.1359909,0.057535 0.224908,0.1569126 0.1882951,0.2039863 0.1673735,0.3975119 -0.052304,0.4027423 -0.1150693,0.6904154 0.9153235,-1.3023746 1.8986424,-1.3023746 0.8944018,0 1.1977661,0.9257843 0.1046084,0.3242861 0.1046084,0.7897934 0,0.4655074 -0.1412213,0.9362452 -0.1412213,0.4655069 -0.3818206,0.8839409 -0.2405994,0.418433 -0.559655,0.774102 -0.3190556,0.350438 -0.6747241,0.611959 -0.7531805,0.543964 -1.4226742,0.543964 -0.6694937,0 -1.0042406,-0.549194 z M 5.8233981,9.9522167 Q 5.635103,10.318346 5.5148034,10.684475 q -0.1150693,0.36613 -0.1150693,0.669494 0,0.303365 0.1307605,0.502121 0.1307605,0.193525 0.3870511,0.193525 0.2562906,0 0.5073507,-0.135991 Q 6.681187,11.772403 6.9165559,11.537034 7.1571552,11.301665 7.3611416,10.98784 7.5703584,10.668784 7.7220405,10.313116 8.051557,9.5390136 8.051557,8.8433677 q 0,-0.3765902 -0.099378,-0.585807 -0.099378,-0.2092168 -0.3085948,-0.2092168 -0.2039863,0 -0.4288944,0.162143 Q 6.9897818,8.3673995 6.743952,8.6341509 6.4981223,8.8956719 6.257523,9.2408796 6.0169237,9.5808569 5.8233981,9.9522167 Z"
           style="font-style:normal;font-variant:normal;font-weight:normal;font-stretch:normal;font-size:10.7119px;font-family:Courgette;-inkscape-font-specification:'Courgette, Normal';font-variant-ligatures:normal;font-variant-caps:normal;font-variant-numeric:normal;font-variant-east-asian:normal;fill:#000000"
           id="path2197" />
        <path
           d="m 10.308434,7.7086615 h 1.231868 l 2.59228,2.4530255 -2.59228,2.463737 h -1.231868 l 2.59228,-2.463737 z"
           style="font-style:normal;font-variant:normal;font-weight:normal;font-stretch:normal;font-size:10.7119px;font-family:Poppins;-inkscape-font-specification:Poppins;font-variant-ligatures:normal;font-variant-caps:normal;font-variant-numeric:normal;font-variant-east-asian:normal;fill:#00ff00;fill-opacity:1"
           id="path2199" />
        <path
           d="m 15.802364,11.191826 q 0,-0.303364 0.04184,-0.580576 0.04707,-0.277213 0.115069,-0.559655 0.07323,-0.282443 0.162143,-0.5648856 l 0.585807,-1.7888036 q 0.695646,-2.1758547 0.87348,-3.3997729 0.05754,-0.4393553 0.428894,-0.4393553 0.219678,0 0.37136,0.1150693 0.277212,0.224908 0.266752,0.4811986 -0.0052,0.2510602 -0.07323,0.5648853 -0.06277,0.3085948 -0.167374,0.6747242 -0.09938,0.3661294 -0.230138,0.7688717 -0.350438,1.0356231 -0.523042,1.4959001 l -0.298134,0.7793325 q 0.455046,-0.7061066 0.74272,-0.9676276 0.575346,-0.5073508 1.197766,-0.5073508 0.915323,0 1.218688,0.9571669 0.09938,0.3295164 0.09938,0.8211759 0,0.4916594 -0.146451,0.9780883 -0.141222,0.481199 -0.387051,0.899632 -0.24583,0.413204 -0.575347,0.74795 -0.324286,0.334747 -0.685185,0.570116 -0.763641,0.49166 -1.480208,0.49166 -0.721798,0 -1.135001,-0.439356 -0.402743,-0.439355 -0.402743,-1.098388 z m 1.464518,0.857789 q 0.491659,0 0.99901,-0.439355 0.774102,-0.669494 1.040854,-1.9143339 0.08892,-0.4079727 0.08892,-0.847328 0,-0.4445856 -0.09938,-0.6224199 -0.09938,-0.1778343 -0.308595,-0.1778343 -0.203986,0 -0.428895,0.1673734 -0.224908,0.1673735 -0.470737,0.4445857 -0.24583,0.2719819 -0.486429,0.6328808 -0.2406,0.3556686 -0.434125,0.7374892 -0.423664,0.842098 -0.423664,1.433135 0,0.585807 0.523041,0.585807 z"
           style="font-style:normal;font-variant:normal;font-weight:normal;font-stretch:normal;font-size:10.7119px;font-family:Courgette;-inkscape-font-specification:'Courgette, Normal';font-variant-ligatures:normal;font-variant-caps:normal;font-variant-numeric:normal;font-variant-east-asian:normal;fill:#000000"
           id="path2201" />
        <path
           d="m 21.644745,12.468049 q -0.130761,-0.135991 -0.214448,-0.345208 -0.07846,-0.214447 -0.07846,-0.49166 0,-0.282442 0.12553,-0.75318 0.130761,-0.470738 0.329517,-1.072236 l 0.439355,-1.3023746 q 0.936245,-2.7198183 1.082697,-4.2052575 0.04707,-0.4393553 0.428894,-0.4393553 0.240599,0 0.397512,0.1150693 0.303364,0.2301385 0.292904,0.5125811 -0.01046,0.2824427 -0.09938,0.6904154 -0.08892,0.4027424 -0.230139,0.883941 -0.141221,0.4759682 -0.324286,1.009471 l -0.721798,2.1235504 q -0.62242,1.8097252 -0.62242,2.3379972 0,0.282443 0.230139,0.282443 0.219677,0 0.397512,-0.09415 0.183064,-0.09415 0.235368,-0.09415 0.109839,0 0.109839,0.109839 0,0.465507 -0.475968,0.779332 -0.319056,0.214448 -0.585807,0.214448 -0.261521,0 -0.423664,-0.06277 -0.162143,-0.06277 -0.292903,-0.198756 z"
           style="font-style:normal;font-variant:normal;font-weight:normal;font-stretch:normal;font-size:10.7119px;font-family:Courgette;-inkscape-font-specification:'Courgette, Normal';font-variant-ligatures:normal;font-variant-caps:normal;font-variant-numeric:normal;font-variant-east-asian:normal;fill:#000000"
           id="path2203" />
        <path
           d="m 24.866681,12.321597 q -0.219677,-0.209217 -0.345207,-0.528273 -0.12553,-0.324286 -0.130761,-0.763641 -0.0052,-0.439355 0.104609,-0.889171 0.115069,-0.4498163 0.319055,-0.8682499 0.209217,-0.4184335 0.49689,-0.7845629 0.292904,-0.3661294 0.643342,-0.6381112 0.763641,-0.5858071 1.584817,-0.5858071 1.077466,0 1.459287,0.946706 0.271982,0.685185 0.03138,1.6580431 -0.219678,0.894402 -0.805485,1.642352 -0.580577,0.74795 -1.37037,1.061775 -0.397512,0.156913 -0.784563,0.156913 -0.381821,0 -0.685185,-0.09938 -0.298134,-0.09938 -0.517812,-0.308595 z m 0.999011,-2.5367537 q -0.156913,0.3870507 -0.251061,0.7950237 -0.08892,0.407973 -0.08369,0.774102 0.0052,0.360899 0.109839,0.570116 0.109838,0.203986 0.350438,0.203986 0.240599,0 0.470737,-0.162143 0.235369,-0.167373 0.455047,-0.439355 0.219678,-0.271982 0.413203,-0.62765 0.193526,-0.355669 0.339977,-0.74272 0.319056,-0.8420975 0.308595,-1.4959 0,-0.5753462 -0.235369,-0.7322587 -0.09415,-0.062765 -0.266751,-0.062765 -0.167374,0 -0.387051,0.1569126 -0.219678,0.1516822 -0.439355,0.4132032 -0.219678,0.261521 -0.423664,0.6119591 -0.203987,0.3504381 -0.360899,0.7374892 z"
           style="font-style:normal;font-variant:normal;font-weight:normal;font-stretch:normal;font-size:10.7119px;font-family:Courgette;-inkscape-font-specification:'Courgette, Normal';font-variant-ligatures:normal;font-variant-caps:normal;font-variant-numeric:normal;font-variant-east-asian:normal;fill:#000000"
           id="path2205" />
        <path
           d="m 19.396337,19.298977 q -0.303364,0 -1.108849,0.878711 -0.601498,0.685185 -0.87348,1.030393 l -0.470737,0.596267 q -0.303365,0.575347 -0.475969,0.957167 l -0.282442,0.606729 q -0.109839,0.224908 -0.193526,0.319056 -0.07846,0.08892 -0.219677,0.08892 -0.135991,0 -0.266752,-0.0523 -0.12553,-0.04707 -0.219678,-0.125531 -0.198755,-0.167373 -0.198755,-0.366129 0,-0.07846 0.115069,-0.308595 l 0.198756,-0.423664 q 0.09415,-0.188295 0.219677,-0.481198 l 0.292904,-0.716568 q 0.617189,-1.542974 0.617189,-1.99279 0,-0.240599 -0.156912,-0.355668 l -0.104609,-0.07323 q -0.0523,-0.03661 -0.0523,-0.12553 0,-0.09415 0.068,-0.177835 0.07323,-0.08369 0.188295,-0.146451 0.235369,-0.1203 0.470738,-0.1203 0.240599,0 0.37659,0.0523 0.135991,0.0523 0.235369,0.141222 0.198756,0.183064 0.198756,0.38182 0,0.198756 -0.05231,0.402743 -0.0523,0.198755 -0.13076,0.407972 -0.07846,0.203987 -0.167373,0.397512 -0.209217,0.449816 -0.261521,0.554425 -0.04707,0.09938 -0.02615,0.07323 0.957167,-1.23961 1.150693,-1.464518 0.402742,-0.465507 0.62765,-0.638111 0.413203,-0.308595 0.779333,-0.308595 0.37136,0 0.591037,0.230138 0.219678,0.230139 0.219678,0.606729 0,0.329517 -0.167374,0.774102 -0.167373,0.444586 -0.224908,0.62242 l 0.768872,-1.014701 0.428894,-0.512581 q 0.387051,-0.434125 0.679955,-0.570116 0.292904,-0.135991 0.475968,-0.135991 0.188295,0 0.36613,0.06799 0.183064,0.068 0.308594,0.193526 0.266752,0.256291 0.266752,0.679955 0,0.407972 -0.188295,0.836867 -0.188295,0.428894 -0.329517,0.706106 -0.141221,0.271982 -0.271982,0.549194 -0.38182,0.831637 -0.38182,1.23438 0,0.282442 0.230138,0.282442 0.219678,0 0.397512,-0.09415 0.183065,-0.09415 0.235369,-0.09415 0.109839,0 0.109839,0.109839 0,0.465507 -0.475968,0.779332 -0.319056,0.214448 -0.585807,0.214448 -0.261521,0 -0.423664,-0.06276 -0.162143,-0.06276 -0.292904,-0.198756 -0.292903,-0.303365 -0.292903,-0.758411 0,-0.455047 0.115069,-0.836867 0.115069,-0.381821 0.271982,-0.73749 0.156912,-0.360898 0.313825,-0.659032 0.162143,-0.303365 0.24583,-0.481199 0.167373,-0.366129 0.167373,-0.538733 0,-0.203987 -0.214447,-0.203987 -0.282443,0 -1.014702,0.936245 -0.554424,0.727029 -0.768871,1.046084 l -0.360899,0.523042 q -0.303365,0.575347 -0.465508,0.957167 l -0.266751,0.606729 q -0.09938,0.224908 -0.172604,0.319056 -0.07323,0.08892 -0.203986,0.08892 -0.130761,0 -0.256291,-0.04184 -0.1203,-0.04184 -0.209217,-0.109838 -0.203986,-0.151683 -0.203986,-0.319056 0,-0.172604 0.109839,-0.465507 0.115069,-0.298134 0.282442,-0.664264 l 0.732259,-1.548204 q 0.392282,-0.863019 0.392282,-1.093158 0,-0.235369 -0.214448,-0.235369 z m 0.517812,1.474979 q 0.0052,0 0.0052,-0.0052 l 0.0052,-0.01046 q -0.01046,0.01046 -0.01046,0.01569 z"
           style="font-style:normal;font-variant:normal;font-weight:normal;font-stretch:normal;font-size:10.7119px;font-family:Courgette;-inkscape-font-specification:'Courgette, Normal';font-variant-ligatures:normal;font-variant-caps:normal;font-variant-numeric:normal;font-variant-east-asian:normal;fill:#000000"
           id="path2215" />
        <path
           d="m 29.062152,22.69352 q 0.1203,0 0.1203,0.120299 0,0.455047 -0.449816,0.763642 -0.303365,0.198756 -0.711337,0.198756 -0.334747,0 -0.512582,-0.156913 -0.319055,-0.282443 -0.319055,-0.690415 0,-0.517812 0.434125,-1.584818 -0.805485,1.087928 -1.129771,1.448827 -0.324286,0.355668 -0.564885,0.554424 -0.523042,0.428895 -0.946706,0.428895 -0.648572,0 -0.86302,-0.559655 -0.06276,-0.172604 -0.06276,-0.392282 0,-0.224908 0.07323,-0.49689 0.07846,-0.277212 0.198756,-0.575346 0.1203,-0.298134 0.261521,-0.611959 l 0.282443,-0.62765 q 0.543963,-1.208227 0.402742,-1.433135 -0.06276,-0.09938 -0.235369,-0.198756 -0.06276,-0.03661 -0.06276,-0.12553 0,-0.09415 0.07323,-0.177835 0.07846,-0.08369 0.198756,-0.146451 0.256291,-0.1203 0.512581,-0.1203 0.256291,0 0.387051,0.05753 0.135991,0.0523 0.219678,0.135991 0.172604,0.172603 0.172604,0.38182 0,0.209217 -0.068,0.470738 -0.06799,0.256291 -0.177834,0.559655 -0.109839,0.303364 -0.240599,0.62765 -0.360899,0.847328 -0.486429,1.11931 l -0.193526,0.402742 q -0.162143,0.360899 -0.162143,0.507351 0,0.146452 0.04707,0.209217 0.04707,0.05753 0.167373,0.05753 0.12553,0 0.287673,-0.11507 0.162143,-0.115069 0.355669,-0.308594 0.193525,-0.193526 0.402742,-0.444586 0.209217,-0.256291 0.407973,-0.528273 0.392281,-0.533502 0.575346,-0.857788 1.108849,-1.961408 1.182075,-2.050325 0.167373,-0.224908 0.339977,-0.224908 0.177835,0 0.308595,0.04184 0.130761,0.03661 0.224908,0.109839 0.219678,0.162143 0.141221,0.324286 -1.276222,2.662284 -1.3756,3.347469 -0.02615,0.235369 -0.02615,0.324286 0,0.397512 0.240599,0.397512 0.224908,0 0.37136,-0.07846 0.146452,-0.08369 0.198756,-0.08369 z"
           style="font-style:normal;font-variant:normal;font-weight:normal;font-stretch:normal;font-size:10.7119px;font-family:Courgette;-inkscape-font-specification:'Courgette, Normal';font-variant-ligatures:normal;font-variant-caps:normal;font-variant-numeric:normal;font-variant-east-asian:normal;fill:#000000"
           id="path2217" />
        <path
           d="m 30.129159,23.598382 q -0.104608,-0.07846 -0.167373,-0.172603 -0.06276,-0.09938 -0.06799,-0.167374 -0.0052,-0.07323 0.02615,-0.172604 0.03661,-0.104608 0.09415,-0.25106 1.067006,-2.625671 1.067006,-3.525303 -0.01569,-0.25106 -0.172604,-0.355668 L 30.80389,18.88054 q -0.04707,-0.03661 -0.05231,-0.12553 0,-0.09415 0.068,-0.177835 0.06799,-0.08369 0.177834,-0.146451 0.224908,-0.1203 0.460277,-0.1203 0.240599,0 0.37136,0.0523 0.135991,0.0523 0.230138,0.141222 0.198756,0.188295 0.198756,0.397511 0.0052,0.209217 -0.04707,0.423664 -0.04707,0.214448 -0.115069,0.423664 -0.06799,0.203987 -0.135991,0.392282 -0.06799,0.183065 -0.08892,0.271982 -0.04184,0.183064 -0.03138,0.230138 0.12553,-0.109839 0.151682,-0.214447 l 0.203986,-0.387051 q 0.679955,-1.223918 1.328527,-1.62143 0.188295,-0.109839 0.449816,-0.109839 0.266751,0 0.428894,0.188295 0.162143,0.183065 0.167374,0.407973 0.01046,0.224908 -0.03138,0.37659 -0.03661,0.146452 -0.115069,0.277212 -0.172604,0.292904 -0.418434,0.292904 -0.06799,0 -0.12553,-0.04707 l -0.115069,-0.09938 q -0.172604,-0.151682 -0.334747,-0.151682 -0.156912,0 -0.387051,0.209217 -0.224908,0.209217 -0.470738,0.538733 -0.826406,1.093158 -1.349448,2.447836 l -0.230138,0.606729 q -0.08892,0.224908 -0.156913,0.324286 -0.06799,0.09415 -0.203986,0.09415 -0.130761,0 -0.266752,-0.0523 -0.13076,-0.04707 -0.235369,-0.125531 z"
           style="font-style:normal;font-variant:normal;font-weight:normal;font-stretch:normal;font-size:10.7119px;font-family:Courgette;-inkscape-font-specification:'Courgette, Normal';font-variant-ligatures:normal;font-variant-caps:normal;font-variant-numeric:normal;font-variant-east-asian:normal;fill:#000000"
           id="path2219" />
        <path
           d="m 34.962066,23.368244 q -0.219678,-0.209217 -0.345208,-0.528272 -0.12553,-0.324286 -0.13076,-0.763642 -0.0052,-0.439355 0.104608,-0.889171 0.115069,-0.449816 0.319056,-0.86825 0.209217,-0.418433 0.49689,-0.784563 0.292903,-0.366129 0.643341,-0.638111 0.763642,-0.585807 1.584817,-0.585807 1.077467,0 1.459288,0.946706 0.271981,0.685185 0.03138,1.658043 -0.219677,0.894402 -0.805485,1.642352 -0.580576,0.74795 -1.370369,1.061775 -0.397512,0.156913 -0.784563,0.156913 -0.381821,0 -0.685185,-0.09938 -0.298134,-0.09938 -0.517812,-0.308595 z m 0.99901,-2.536754 q -0.156912,0.387051 -0.25106,0.795024 -0.08892,0.407973 -0.08369,0.774102 0.0052,0.360899 0.109839,0.570116 0.109839,0.203986 0.350438,0.203986 0.2406,0 0.470738,-0.162143 0.235369,-0.167373 0.455047,-0.439355 0.219677,-0.271982 0.413203,-0.62765 0.193525,-0.355669 0.339977,-0.74272 0.319056,-0.842097 0.308595,-1.4959 0,-0.575346 -0.235369,-0.732259 -0.09415,-0.06276 -0.266752,-0.06276 -0.167373,0 -0.387051,0.156913 -0.219677,0.151682 -0.439355,0.413203 -0.219678,0.261521 -0.423664,0.611959 -0.203986,0.350438 -0.360899,0.737489 z"
           style="font-style:normal;font-variant:normal;font-weight:normal;font-stretch:normal;font-size:10.7119px;font-family:Courgette;-inkscape-font-specification:'Courgette, Normal';font-variant-ligatures:normal;font-variant-caps:normal;font-variant-numeric:normal;font-variant-east-asian:normal;fill:#000000"
           id="path2221" />
        <path
           style="fill:#000000;stroke-width:0.13681"
           id="rect32"
           width="10.753757"
           height="0.28611004"
           x="29.219164"
           y="13.009756"
           inkscape:path-effect="#path-effect34"
           d="m 29.483747,13.009756 h 10.224591 c 0.146125,0 0.264583,0.118458 0.264583,0.264583 0,0.01189 -0.118458,0.02153 -0.264583,0.02153 l -10.224591,0 c -0.146125,0 -0.264583,-0.118458 -0.264583,-0.264583 0,-0.01189 0.118458,-0.02153 0.264583,-0.02153 z"
           sodipodi:type="rect" />
        <path
           style="font-style:normal;font-weight:normal;font-size:10.7119px;line-height:1;font-family:sans-serif;white-space:pre;shape-inside:url(#rect38);fill:#000000;fill-opacity:1;stroke:none;stroke-width:0.139866"
           id="rect32-3"
           width="11.239646"
           height="0.28611004"
           x="3.0209386"
           y="23.952076"
           inkscape:path-effect="#path-effect36"
           d="m 3.285522,23.952076 h 10.710479 c 0.146126,0 0.264584,0.118458 0.264584,0.264583 0,0.01189 -0.118458,0.02153 -0.264584,0.02153 H 3.285522 c -0.1461254,0 -0.2645834,-0.118458 -0.2645834,-0.264583 0,-0.01189 0.118458,-0.02153 0.2645834,-0.02153 z"
           sodipodi:type="rect" />
      </g>
    </g>
  </g>
</svg>
